Coordinates
version=1
nRows=14
nColumns=40
inDegrees=yes

Units are S.I. units (second, meters, Newtons, ...)
If the header above contains a line with 'inDegrees', this indicates whether rotational values are in degrees (yes) or radians (no).

endheader
time	pelvis_tilt	pelvis_list	pelvis_rotation	pelvis_tx	pelvis_ty	pelvis_tz	hip_flexion_r	hip_adduction_r	hip_rotation_r	knee_angle_r	knee_angle_r_beta	ankle_angle_r	subtalar_angle_r	mtp_angle_r	hip_flexion_l	hip_adduction_l	hip_rotation_l	knee_angle_l	knee_angle_l_beta	ankle_angle_l	subtalar_angle_l	mtp_angle_l	lumbar_extension	lumbar_bending	lumbar_rotation	arm_flex_r	arm_add_r	arm_rot_r	elbow_flex_r	pro_sup_r	wrist_flex_r	wrist_dev_r	arm_flex_l	arm_add_l	arm_rot_l	elbow_flex_l	pro_sup_l	wrist_flex_l	wrist_dev_l
      7.76666667	     -1.33624298	      2.54587794	      2.87340861	     -0.17463106	      1.09720356	      0.04567937	     38.61491244	     -9.14217450	      0.59398497	     63.17514880	      1.10261435	    -23.43183161	    -29.62266699	      0.00000000	     75.92651138	     -3.35944007	      3.15280008	     89.88037418	      1.56870846	    -11.41091115	    -34.96568424	      0.00000000	    -58.66175846	     -2.86635185	     -6.88881028	     84.31994923	    -12.65242045	     20.15626922	     49.64733549	      3.24395151	      0.00000000	      0.00000000	     86.75641810	    -26.11924063	     33.37943106	     65.03385577	     88.77838601	      0.00000000	      0.00000000
      7.77500000	     -1.15946911	      1.89732284	      3.04033199	     -0.17513519	      1.09726073	      0.04584936	     39.66499716	     -8.37564906	      0.99948188	     66.47642590	      1.16023251	    -23.23566415	    -29.84820825	      0.00000000	     74.34347257	     -3.29797170	      3.74068025	     86.74684653	      1.51401809	    -11.76828860	    -34.69267202	      0.00000000	    -58.79305761	     -2.25972307	     -6.38374436	     84.49133454	    -12.62196513	     20.18625545	     49.52216300	      3.26824513	      0.00000000	      0.00000000	     86.76522349	    -26.03078150	     33.22503265	     64.98945111	     88.78755627	      0.00000000	      0.00000000
      7.78333333	     -2.71202373	      2.05172279	      3.87964140	     -0.17820541	      1.09540891	      0.04494821	     42.99478110	     -8.95828601	      1.36177722	     70.06031910	      1.22278324	    -23.40079005	    -30.50522178	      0.00000000	     73.99599046	     -1.48875902	      4.32041178	     82.56222445	      1.44098265	    -13.43329615	    -36.55584435	      0.00000000	    -57.36711386	     -1.69512271	     -7.01918736	     84.69792454	    -12.50270116	     20.16510507	     49.41799891	      3.29035700	      0.00000000	      0.00000000	     86.97110665	    -26.03710876	     33.21119586	     64.83562280	     88.78958541	      0.00000000	      0.00000000
      7.79166667	     -2.65677945	      1.34255605	      4.06446166	     -0.17903786	      1.09540231	      0.04524992	     44.35942021	     -8.22960824	      1.50909868	     73.32825211	      1.27981943	    -23.24401249	    -30.64491990	      0.00000000	     72.07436414	     -1.52758786	      5.03283705	     79.03883355	      1.37948788	    -13.71836064	    -36.56996719	      0.00000000	    -57.40262133	     -1.02517033	     -6.47542956	     84.92355286	    -12.45005493	     20.20434666	     49.31880440	      3.30584326	      0.00000000	      0.00000000	     87.00900107	    -25.98281931	     33.05684363	     64.77537752	     88.79029279	      0.00000000	      0.00000000
      7.80000000	     -2.34803469	      1.81118449	      4.07007264	     -0.17900752	      1.09547747	      0.04476152	     45.66752303	     -8.56957917	      2.40470955	     76.87542906	      1.34172935	    -22.79110206	    -30.95193383	      0.00000000	     69.50931694	     -1.57008608	      4.01279513	     75.38100314	      1.31564670	    -14.74824358	    -37.21529339	      0.00000000	    -57.70037271	     -1.16672916	     -6.83017510	     85.03066067	    -12.38747965	     20.35678370	     49.19845067	      3.34508905	      0.00000000	      0.00000000	     86.91855224	    -25.89368377	     32.75299135	     64.60992353	     88.79339052	      0.00000000	      0.00000000
      7.80833333	     -1.69623145	      1.20545783	      3.91794516	     -0.17822036	      1.09557470	      0.04523821	     46.46843237	     -7.77345422	      2.57701603	     80.14842240	      1.39885386	    -22.26624088	    -31.20248844	      0.00000000	     66.86258368	     -2.61882889	      3.62925713	     72.14920680	      1.25924121	    -15.26294161	    -36.71613869	      0.00000000	    -58.19124317	     -0.77637927	     -6.18447018	     85.09091120	    -12.30018679	     20.50673414	     49.15996765	      3.37195239	      0.00000000	      0.00000000	     86.66418745	    -25.89685150	     32.44858924	     64.66743018	     88.79481271	      0.00000000	      0.00000000
      7.81666667	     -0.68619680	      1.10342021	      3.48957873	     -0.17702116	      1.09630640	      0.04589071	     47.00052965	     -7.16570991	      3.30113567	     83.48016255	      1.45700370	    -21.78490761	    -31.25099214	      0.00000000	     63.54311051	     -3.66396059	      2.63427625	     68.85624425	      1.20176817	    -15.04963065	    -35.55441882	      0.00000000	    -59.09766095	     -0.92103081	     -5.78559566	     85.17800912	    -12.24790770	     20.55622965	     49.07258031	      3.46645185	      0.00000000	      0.00000000	     86.46871127	    -25.90581726	     32.17799046	     64.63918821	     88.79642323	      0.00000000	      0.00000000
      7.82500000	     -0.47017883	      0.35326642	      3.51615015	     -0.17667693	      1.09582732	      0.04644797	     48.31353667	     -6.39767428	      3.17803209	     86.66782304	      1.51263887	    -21.03840432	    -31.44540696	      0.00000000	     61.18818943	     -4.30720189	      2.87461857	     65.47227852	      1.14270683	    -15.48328952	    -34.96072306	      0.00000000	    -59.16071718	     -0.35033696	     -5.13159968	     85.22777393	    -12.13924474	     20.64007408	     49.05992975	      3.68408898	      0.00000000	      0.00000000	     86.21585991	    -25.98945429	     31.89919413	     64.69504095	     88.78069734	      0.00000000	      0.00000000
      7.83333333	     -0.33294477	     -0.33427395	      3.50647869	     -0.17638054	      1.09548427	      0.04700177	     49.83413625	     -5.66281752	      3.10621729	     89.64801750	      1.56465307	    -20.49383633	    -31.55290210	      0.00000000	     58.76843350	     -4.75613533	      3.35932156	     61.99699957	      1.08205177	    -15.89034272	    -34.39856195	      0.00000000	    -59.17572817	      0.14930624	     -4.50683407	     85.26694251	    -12.03010580	     20.69972571	     49.06054059	      4.00755566	      0.00000000	      0.00000000	     85.93867327	    -26.05004515	     31.62124474	     64.77143733	     88.78544137	      0.00000000	      0.00000000
      7.84166667	      0.23422742	     -0.03287495	      3.29011555	     -0.17573683	      1.09596092	      0.04708553	     51.04803485	     -5.62173680	      3.90316574	     92.71328115	      1.61815202	    -19.80178754	    -31.62490302	      0.00000000	     55.50212868	     -4.93799207	      2.56077270	     58.45071094	      1.02015736	    -16.26729665	    -33.25729756	      0.00000000	    -59.70629318	     -0.06457500	     -4.62324204	     85.42515221	    -11.96328105	     21.15835564	     48.86023997	      3.73668453	      0.00000000	      0.00000000	     85.79775325	    -26.06694789	     31.33376951	     64.61896246	     88.79732379	      0.00000000	      0.00000000
      7.85000000	      0.27168521	     -0.48128701	      3.37425914	     -0.17540180	      1.09539545	      0.04724231	     52.84264956	     -5.17207598	      3.96378269	     95.62790664	      1.66902183	    -18.97291645	    -31.58769761	      0.00000000	     53.02572293	     -5.37584713	      2.57770458	     54.99858366	      0.95990637	    -16.99991409	    -32.33245137	      0.00000000	    -59.62100410	      0.39644165	     -4.28410008	     85.46182460	    -11.84232298	     21.23884319	     48.88151902	      3.93792580	      0.00000000	      0.00000000	     85.55122497	    -26.18327222	     31.08070212	     64.62646602	     88.84559474	      0.00000000	      0.00000000
      7.85833333	      0.40233385	     -0.76375597	      2.97140314	     -0.17485852	      1.09518521	      0.04789344	     54.52514375	     -4.45919384	      4.42081573	     98.31416549	      1.71590589	    -17.81352774	    -31.38819652	      0.00000000	     50.42853704	     -6.11458618	      2.03470560	     51.76746769	      0.90351276	    -17.43630487	    -31.24950910	      0.00000000	    -59.65203382	      0.36383356	     -3.82905962	     85.55213988	    -11.76168011	     21.67648028	     48.87031006	      3.34089693	      0.00000000	      0.00000000	     85.31736171	    -26.23805045	     30.88502328	     64.62809528	     88.80798652	      0.00000000	      0.00000000
      7.86666667	      0.45413332	     -1.21733541	      2.80563184	     -0.17428181	      1.09471124	      0.04813727	     56.31317512	     -4.07615438	      4.35762646	    100.88762643	      1.76082126	    -16.40948289	    -31.16301752	      0.00000000	     48.08903248	     -6.76491335	      1.78280373	     48.78868662	      0.85152322	    -18.14635653	    -30.12495707	      0.00000000	    -59.58386334	      0.65360454	     -3.34451711	     85.64384643	    -11.72566298	     22.03952611	     48.82650956	      3.27616156	      0.00000000	      0.00000000	     85.05291380	    -26.33054631	     30.69878685	     64.63810399	     88.79893014	      0.00000000	      0.00000000
      7.87500000	      0.38065392	     -1.85678385	      2.81981460	     -0.17364594	      1.09395874	      0.04838477	     58.20633206	     -3.60606659	      4.06540557	    103.30942708	      1.80308965	    -15.01855958	    -31.42124673	      0.00000000	     46.07242961	     -7.42979182	      1.78339071	     46.09984007	      0.80459399	    -19.14433903	    -29.23632851	      0.00000000	    -59.36397964	      1.19677280	     -2.84285725	     85.66395144	    -11.60482845	     22.20920359	     48.80759042	      3.50182021	      0.00000000	      0.00000000	     84.70878839	    -26.46789798	     30.43197685	     64.68550868	     88.79730336	      0.00000000	      0.00000000
